<svg width="16" height="16" viewBox="0 0 16 16" fill="none" xmlns="http://www.w3.org/2000/svg">
<path d="M1.95193 4H0.730469V11.9532H1.95193V4Z" fill="#231815"/>
<path d="M2.54297 6.6969L2.76066 6.8336C3.09928 6.27439 3.49837 5.85187 3.95793 5.56605C4.4175 5.28024 4.92543 5.10626 5.46965 5.08141L5.60268 4.0127C4.46587 4.31094 3.45 5.20568 2.54297 6.6969Z" fill="#231815"/>
<path d="M15.2686 7.64063C15.2686 6.54707 14.9421 5.68962 14.277 5.06827C13.6239 4.44693 12.7048 4.09898 11.5196 4.02441V4.27295C12.2331 4.37237 12.8257 4.69547 13.2732 5.24225C13.7206 5.78903 13.9746 6.48494 14.023 7.32996H7.98822C8.03659 6.96958 8.14543 6.6092 8.29056 6.27368C8.52034 5.73932 8.84687 5.29196 9.25806 4.93158C9.66924 4.5712 10.1409 4.35994 10.6488 4.27295V4.02441C9.87484 4.07412 9.18549 4.27295 8.5929 4.6209C8.00031 4.96886 7.52865 5.42865 7.21422 6.00029C6.88769 6.58435 6.73047 7.24297 6.73047 7.97616C6.73047 8.70935 6.91187 9.3804 7.27469 9.98931C7.6375 10.5982 8.15753 11.0829 8.82268 11.4308C9.48784 11.7912 10.2497 11.9652 11.1205 11.9652C11.6768 11.9652 12.2089 11.8782 12.7048 11.7166C13.2127 11.5427 13.6481 11.2941 14.023 10.971L13.7569 10.7846C13.0192 11.4184 12.1847 11.7415 11.2293 11.7415C10.5642 11.7415 9.98368 11.5551 9.47574 11.1823C8.96781 10.8095 8.5929 10.3373 8.32684 9.7532C8.06078 9.18157 7.92775 8.58508 7.92775 7.97616C7.92775 7.86432 7.92775 7.75248 7.93984 7.64063H15.2686V7.64063Z" fill="#231815"/>
</svg>
